REM MD5 1ee64f0a21c8ad6cab3ba5e92f3e67e7
FILE "Winter Releases (Europe, Australia) (En,Fr,De,Es,It).bin" BINARY
  TRACK 01 MODE2/2352
    INDEX 01 00:00:00
  TRACK 02 AUDIO
    INDEX 00 26:33:68
    INDEX 01 26:35:68
  TRACK 03 AUDIO
    INDEX 00 30:16:01
    INDEX 01 30:18:01
REM LEADOUT 33:19:33
